<?xml version="1.0" encoding="UTF-8" standalone="no" ?>
<!DOCTYPE svg PUBLIC "-//W3C//DTD SVG 1.1//EN" "http://www.w3.org/Graphics/SVG/1.1/DTD/svg11.dtd">
<svg xmlns="http://www.w3.org/2000/svg" xmlns:xlink="http://www.w3.org/1999/xlink" version="1.1" width="120" height="150" viewBox="0 0 120 150" xml:space="preserve">
<desc>Created with Fabric.js 4.6.0</desc>
<defs>
</defs>
<g transform="matrix(0.46 0 0 1.35 33.55 74.99)" id="LbBhvM177adrE4Siex4jS"  >
<path style="stroke: rgb(232,63,14); stroke-width: 0; stroke-dasharray: none; stroke-linecap: butt; stroke-dashoffset: 0; stroke-linejoin: miter; stroke-miterlimit: 4; fill: rgb(45,98,237); fill-rule: nonzero; opacity: 1;" vector-effect="non-scaling-stroke"  transform=" translate(0, 0)" d="M -44 -38.55867 C -44 -41.563829999999996 -36.78151 -44 -27.87706 -44 L 41.88911 -44 L 41.88911 -44 C 43.05492 -44 44 -43.68105 44 -43.2876 L 44 43.99999 L -18.895380000000003 43.99999 L -18.895380000000003 43.99999 C -32.76028 43.99999 -44 40.2067 -44 35.52744 z" stroke-linecap="round" />
</g>
<g transform="matrix(0.72 0 0 0.93 85.41 42.95)" id="pE6a2BDzS67myTD4NMhwP"  >
<path style="stroke: rgb(131,8,159); stroke-width: 0; stroke-dasharray: none; stroke-linecap: butt; stroke-dashoffset: 0; stroke-linejoin: miter; stroke-miterlimit: 4; fill: rgb(237,114,45); fill-rule: nonzero; opacity: 1;" vector-effect="non-scaling-stroke"  transform=" translate(0, 0)" d="M -29.5 -29.57881 L 17.95098 -29.45204 L 17.95098 -29.45204 C 24.33576 -29.43498 29.500010000000003 -25.41582 29.500010000000003 -20.46382 L 29.500010000000003 29.57882 L -29.499989999999997 29.57882 z" stroke-linecap="round" />
</g>
<g transform="matrix(0.99 0 0 1.28 85.41 107.03)" id="zB1-trpD4HapcTAKHOkF_"  >
<path style="stroke: rgb(157,187,50); stroke-width: 0; stroke-dasharray: none; stroke-linecap: butt; stroke-dashoffset: 0; stroke-linejoin: miter; stroke-miterlimit: 4; fill: rgb(45,237,53); fill-rule: nonzero; opacity: 1;" vector-effect="non-scaling-stroke"  transform=" translate(0, 0)" d="M -21.5 -21.5 L 21.499989999999997 -21.5 L 21.499989999999997 12.46911 L 21.499989999999997 12.46911 C 21.499989999999997 17.45673 16.272919999999996 21.49999 9.824999999999998 21.49999 L -21.5 21.49999 z" stroke-linecap="round" />
</g>
</svg>